<mxfile host="app.diagrams.net" modified="2023-09-02T08:04:19.882Z" agent="Mozilla/5.0 (Macintosh; Intel Mac OS X 10_15_7) AppleWebKit/537.36 (KHTML, like Gecko) Chrome/116.0.0.0 Safari/537.36 Edg/116.0.1938.62" etag="XnDGBmBbjFXPTHfbBlkC" version="21.7.2" type="device">
  <diagram name="第 1 页" id="tJGOgEG8IW2KNdPeM_2c">
    <mxGraphModel dx="954" dy="648" grid="1" gridSize="10" guides="1" tooltips="1" connect="1" arrows="1" fold="1" page="1" pageScale="1" pageWidth="827" pageHeight="1169" math="0" shadow="0">
      <root>
        <mxCell id="0" />
        <mxCell id="1" parent="0" />
        <mxCell id="yeg0Dh8nkkPUoOnw4d_f-1" style="edgeStyle=orthogonalEdgeStyle;rounded=0;orthogonalLoop=1;jettySize=auto;html=1;exitX=0.5;exitY=1;exitDx=0;exitDy=0;entryX=0.5;entryY=0;entryDx=0;entryDy=0;" edge="1" parent="1" source="yeg0Dh8nkkPUoOnw4d_f-2" target="yeg0Dh8nkkPUoOnw4d_f-16">
          <mxGeometry relative="1" as="geometry">
            <mxPoint x="455" y="347" as="targetPoint" />
          </mxGeometry>
        </mxCell>
        <mxCell id="yeg0Dh8nkkPUoOnw4d_f-2" value="&lt;span style=&quot;font-size: 12px;&quot;&gt;func: NewTiKVSnapshot&lt;/span&gt;" style="html=1;fillColor=#E6D0DE;" diagramCategory="uml" diagramName="Interface" vertex="1" parent="1">
          <mxGeometry x="379" y="247" width="151" height="50" as="geometry" />
        </mxCell>
        <mxCell id="yeg0Dh8nkkPUoOnw4d_f-3" style="edgeStyle=orthogonalEdgeStyle;rounded=0;orthogonalLoop=1;jettySize=auto;html=1;exitX=0.5;exitY=1;exitDx=0;exitDy=0;" edge="1" parent="1">
          <mxGeometry relative="1" as="geometry">
            <mxPoint x="185" y="405" as="sourcePoint" />
            <mxPoint x="185" y="405" as="targetPoint" />
          </mxGeometry>
        </mxCell>
        <mxCell id="yeg0Dh8nkkPUoOnw4d_f-4" value="" style="endArrow=classic;html=1;entryX=1;entryY=0.5;entryDx=0;entryDy=0;" diagramCategory="general" diagramName="DirectionalConnector" edge="1" parent="1" source="yeg0Dh8nkkPUoOnw4d_f-17">
          <mxGeometry width="50" height="50" relative="1" as="geometry">
            <mxPoint x="490" y="477" as="sourcePoint" />
            <mxPoint x="240" y="388" as="targetPoint" />
          </mxGeometry>
        </mxCell>
        <mxCell id="yeg0Dh8nkkPUoOnw4d_f-5" value="BatchGet&lt;br /&gt;Get&lt;br /&gt;Snapshot&lt;br /&gt;..." style="text;html=1;strokeColor=none;fillColor=none;align=center;verticalAlign=middle;whiteSpace=wrap;rounded=0;" diagramCategory="general" diagramName="text" vertex="1" parent="1">
          <mxGeometry x="280" y="401" width="60" height="40" as="geometry" />
        </mxCell>
        <mxCell id="yeg0Dh8nkkPUoOnw4d_f-6" value="TiKV" style="shape=datastore;whiteSpace=wrap;html=1;fillColor=#B9E0A5;" diagramCategory="advanced" diagramName="DataStorage" vertex="1" parent="1">
          <mxGeometry x="180" y="357" width="60" height="60" as="geometry" />
        </mxCell>
        <mxCell id="yeg0Dh8nkkPUoOnw4d_f-7" style="edgeStyle=orthogonalEdgeStyle;rounded=0;orthogonalLoop=1;jettySize=auto;html=1;entryX=0.5;entryY=0;entryDx=0;entryDy=0;" edge="1" parent="1" source="yeg0Dh8nkkPUoOnw4d_f-8" target="yeg0Dh8nkkPUoOnw4d_f-10">
          <mxGeometry relative="1" as="geometry" />
        </mxCell>
        <mxCell id="yeg0Dh8nkkPUoOnw4d_f-8" value="&lt;span style=&quot;font-size: 12px;&quot;&gt;func: NewTiKVTxn&lt;/span&gt;" style="html=1;fillColor=#E6D0DE;" diagramCategory="uml" diagramName="Interface" vertex="1" parent="1">
          <mxGeometry x="379" y="497" width="151" height="50" as="geometry" />
        </mxCell>
        <mxCell id="yeg0Dh8nkkPUoOnw4d_f-9" style="edgeStyle=orthogonalEdgeStyle;rounded=0;orthogonalLoop=1;jettySize=auto;html=1;exitX=0.5;exitY=1;exitDx=0;exitDy=0;entryX=0.5;entryY=0;entryDx=0;entryDy=0;" edge="1" parent="1" source="yeg0Dh8nkkPUoOnw4d_f-16" target="yeg0Dh8nkkPUoOnw4d_f-8">
          <mxGeometry relative="1" as="geometry">
            <mxPoint x="448.42" y="529" as="targetPoint" />
            <mxPoint x="448.42" y="477" as="sourcePoint" />
          </mxGeometry>
        </mxCell>
        <mxCell id="yeg0Dh8nkkPUoOnw4d_f-10" value="KVTxn" style="swimlane;fontStyle=1;align=center;verticalAlign=top;childLayout=stackLayout;horizontal=1;startSize=26;horizontalStack=0;resizeParent=1;resizeParentMax=0;resizeLast=0;collapsible=1;marginBottom=0;fillColor=#FFF2CC;" diagramCategory="uml" diagramName="Class" vertex="1" parent="1">
          <mxGeometry x="379.5" y="597" width="150" height="156" as="geometry" />
        </mxCell>
        <mxCell id="yeg0Dh8nkkPUoOnw4d_f-11" value="+ snapshot: *KVSnapshot" style="text;strokeColor=none;fillColor=none;align=left;verticalAlign=top;spacingLeft=4;spacingRight=4;overflow=hidden;rotatable=0;points=[[0,0.5],[1,0.5]];portConstraint=eastwest;" vertex="1" parent="yeg0Dh8nkkPUoOnw4d_f-10">
          <mxGeometry y="26" width="150" height="26" as="geometry" />
        </mxCell>
        <mxCell id="yeg0Dh8nkkPUoOnw4d_f-12" value="+ us: *KVUnionStore" style="text;strokeColor=none;fillColor=none;align=left;verticalAlign=top;spacingLeft=4;spacingRight=4;overflow=hidden;rotatable=0;points=[[0,0.5],[1,0.5]];portConstraint=eastwest;" vertex="1" parent="yeg0Dh8nkkPUoOnw4d_f-10">
          <mxGeometry y="52" width="150" height="26" as="geometry" />
        </mxCell>
        <mxCell id="yeg0Dh8nkkPUoOnw4d_f-13" value="+ store: kvstore" style="text;strokeColor=none;fillColor=none;align=left;verticalAlign=top;spacingLeft=4;spacingRight=4;overflow=hidden;rotatable=0;points=[[0,0.5],[1,0.5]];portConstraint=eastwest;" vertex="1" parent="yeg0Dh8nkkPUoOnw4d_f-10">
          <mxGeometry y="78" width="150" height="26" as="geometry" />
        </mxCell>
        <mxCell id="yeg0Dh8nkkPUoOnw4d_f-14" value="+ startTS: uint64" style="text;strokeColor=none;fillColor=#FFE6CC;align=left;verticalAlign=top;spacingLeft=4;spacingRight=4;overflow=hidden;rotatable=0;points=[[0,0.5],[1,0.5]];portConstraint=eastwest;" vertex="1" parent="yeg0Dh8nkkPUoOnw4d_f-10">
          <mxGeometry y="104" width="150" height="26" as="geometry" />
        </mxCell>
        <mxCell id="yeg0Dh8nkkPUoOnw4d_f-15" value="+ commitTS: uint64" style="text;strokeColor=none;fillColor=none;align=left;verticalAlign=top;spacingLeft=4;spacingRight=4;overflow=hidden;rotatable=0;points=[[0,0.5],[1,0.5]];portConstraint=eastwest;" vertex="1" parent="yeg0Dh8nkkPUoOnw4d_f-10">
          <mxGeometry y="130" width="150" height="26" as="geometry" />
        </mxCell>
        <mxCell id="yeg0Dh8nkkPUoOnw4d_f-16" value="KVSnapshot" style="swimlane;fontStyle=1;childLayout=stackLayout;horizontal=1;startSize=26;fillColor=#FFF2CC;horizontalStack=0;resizeParent=1;resizeParentMax=0;resizeLast=0;collapsible=1;marginBottom=0;" diagramCategory="uml" diagramName="Class2" vertex="1" parent="1">
          <mxGeometry x="379.5" y="350" width="150" height="104" as="geometry" />
        </mxCell>
        <mxCell id="yeg0Dh8nkkPUoOnw4d_f-17" value="+ store: kvstore" style="text;strokeColor=none;fillColor=none;align=left;verticalAlign=top;spacingLeft=4;spacingRight=4;overflow=hidden;rotatable=0;points=[[0,0.5],[1,0.5]];portConstraint=eastwest;" vertex="1" parent="yeg0Dh8nkkPUoOnw4d_f-16">
          <mxGeometry y="26" width="150" height="26" as="geometry" />
        </mxCell>
        <mxCell id="yeg0Dh8nkkPUoOnw4d_f-18" value="+ version: uint64" style="text;strokeColor=none;fillColor=none;align=left;verticalAlign=top;spacingLeft=4;spacingRight=4;overflow=hidden;rotatable=0;points=[[0,0.5],[1,0.5]];portConstraint=eastwest;" vertex="1" parent="yeg0Dh8nkkPUoOnw4d_f-16">
          <mxGeometry y="52" width="150" height="26" as="geometry" />
        </mxCell>
        <mxCell id="yeg0Dh8nkkPUoOnw4d_f-19" value="+ vars: *kv.Variables" style="text;strokeColor=none;fillColor=none;align=left;verticalAlign=top;spacingLeft=4;spacingRight=4;overflow=hidden;rotatable=0;points=[[0,0.5],[1,0.5]];portConstraint=eastwest;" vertex="1" parent="yeg0Dh8nkkPUoOnw4d_f-16">
          <mxGeometry y="78" width="150" height="26" as="geometry" />
        </mxCell>
        <mxCell id="yeg0Dh8nkkPUoOnw4d_f-20" value="read-only " style="text;html=1;strokeColor=none;fillColor=#D4E1F5;align=center;verticalAlign=middle;whiteSpace=wrap;rounded=0;" diagramCategory="general" diagramName="text" vertex="1" parent="1">
          <mxGeometry x="130" y="701" width="70" height="20" as="geometry" />
        </mxCell>
        <mxCell id="yeg0Dh8nkkPUoOnw4d_f-21" value="read-write" style="text;html=1;strokeColor=none;fillColor=#D4E1F5;align=center;verticalAlign=middle;whiteSpace=wrap;rounded=0;" diagramCategory="general" diagramName="text" vertex="1" parent="1">
          <mxGeometry x="130" y="672" width="70" height="20" as="geometry" />
        </mxCell>
        <mxCell id="yeg0Dh8nkkPUoOnw4d_f-22" value="RPC" style="text;html=1;strokeColor=none;fillColor=#D4E1F5;align=center;verticalAlign=middle;whiteSpace=wrap;rounded=0;" diagramCategory="general" diagramName="text" vertex="1" parent="1">
          <mxGeometry x="280" y="365" width="60" height="20" as="geometry" />
        </mxCell>
        <mxCell id="yeg0Dh8nkkPUoOnw4d_f-23" value="KVStore::Begin(opt... TxnOption) -&amp;gt;  *transaction.KVTxn" style="text;html=1;strokeColor=none;fillColor=#CCFFFF;align=center;verticalAlign=middle;whiteSpace=wrap;rounded=0;" diagramCategory="general" diagramName="text" vertex="1" parent="1">
          <mxGeometry x="120" y="200" width="320" height="20" as="geometry" />
        </mxCell>
        <mxCell id="yeg0Dh8nkkPUoOnw4d_f-24" value="&lt;div style=&quot;text-align: left;&quot;&gt;&lt;span style=&quot;background-color: initial; font-size: 12px;&quot;&gt;kv.Transaction&lt;/span&gt;&lt;/div&gt;" style="html=1;" diagramCategory="uml" diagramName="Interface" vertex="1" parent="1">
          <mxGeometry x="630" y="595" width="110" height="30" as="geometry" />
        </mxCell>
        <mxCell id="yeg0Dh8nkkPUoOnw4d_f-25" value="KVUnionStore" style="swimlane;fontStyle=0;childLayout=stackLayout;horizontal=1;startSize=26;fillColor=#FFFFCC;horizontalStack=0;resizeParent=1;resizeParentMax=0;resizeLast=0;collapsible=1;marginBottom=0;" diagramCategory="uml" diagramName="Class2" vertex="1" parent="1">
          <mxGeometry x="210" y="643" width="140" height="78" as="geometry" />
        </mxCell>
        <mxCell id="yeg0Dh8nkkPUoOnw4d_f-26" value="+ memBuffer: *MemDB" style="text;strokeColor=none;fillColor=none;align=left;verticalAlign=top;spacingLeft=4;spacingRight=4;overflow=hidden;rotatable=0;points=[[0,0.5],[1,0.5]];portConstraint=eastwest;" vertex="1" parent="yeg0Dh8nkkPUoOnw4d_f-25">
          <mxGeometry y="26" width="140" height="26" as="geometry" />
        </mxCell>
        <mxCell id="yeg0Dh8nkkPUoOnw4d_f-27" value="+ snapshot: uSnapshot" style="text;strokeColor=none;fillColor=none;align=left;verticalAlign=top;spacingLeft=4;spacingRight=4;overflow=hidden;rotatable=0;points=[[0,0.5],[1,0.5]];portConstraint=eastwest;" vertex="1" parent="yeg0Dh8nkkPUoOnw4d_f-25">
          <mxGeometry y="52" width="140" height="26" as="geometry" />
        </mxCell>
        <mxCell id="yeg0Dh8nkkPUoOnw4d_f-28" value="" style="endArrow=classic;html=1;entryX=1;entryY=0.25;entryDx=0;entryDy=0;exitX=0;exitY=0.5;exitDx=0;exitDy=0;" diagramCategory="general" diagramName="DirectionalConnector" edge="1" parent="1" source="yeg0Dh8nkkPUoOnw4d_f-12" target="yeg0Dh8nkkPUoOnw4d_f-25">
          <mxGeometry width="50" height="50" relative="1" as="geometry">
            <mxPoint x="480" y="587" as="sourcePoint" />
            <mxPoint x="530" y="537" as="targetPoint" />
          </mxGeometry>
        </mxCell>
        <mxCell id="yeg0Dh8nkkPUoOnw4d_f-29" value="" style="endArrow=classic;html=1;exitX=0;exitY=0.5;exitDx=0;exitDy=0;entryX=1.006;entryY=0.088;entryDx=0;entryDy=0;entryPerimeter=0;" diagramCategory="general" diagramName="DirectionalConnector" edge="1" parent="1" source="yeg0Dh8nkkPUoOnw4d_f-24" target="yeg0Dh8nkkPUoOnw4d_f-10">
          <mxGeometry width="50" height="50" relative="1" as="geometry">
            <mxPoint x="560" y="587" as="sourcePoint" />
            <mxPoint x="610" y="537" as="targetPoint" />
          </mxGeometry>
        </mxCell>
        <mxCell id="yeg0Dh8nkkPUoOnw4d_f-30" value="interface" style="text;html=1;strokeColor=none;fillColor=#D4E1F5;align=center;verticalAlign=middle;whiteSpace=wrap;rounded=0;" diagramCategory="general" diagramName="text" vertex="1" parent="1">
          <mxGeometry x="550" y="587" width="70" height="20" as="geometry" />
        </mxCell>
        <mxCell id="yeg0Dh8nkkPUoOnw4d_f-31" value="" style="rounded=0;whiteSpace=wrap;html=1;fillColor=none;dashed=1;" diagramCategory="general" diagramName="Rectangle" vertex="1" parent="1">
          <mxGeometry x="120" y="230" width="640" height="540" as="geometry" />
        </mxCell>
      </root>
    </mxGraphModel>
  </diagram>
</mxfile>
